<svg width="100" height="100" viewBox="0 0 100 100" fill="none" xmlns="http://www.w3.org/2000/svg"><path fill-rule="evenodd" clip-rule="evenodd" d="M44.429 10.412a8 8 0 0111.48 0l1.793 1.847a8 8 0 005.8 2.427l2.588-.02a8 8 0 018.06 8.059l-.02 2.865a8 8 0 002.343 5.717l2.035 2.035a8 8 0 010 11.316l-2.035 2.034a8 8 0 00-2.344 5.717l.021 2.865a8 8 0 01-8.06 8.06l-2.588-.02a8 8 0 00-5.8 2.427l-1.794 1.847a8 8 0 01-11.48 0l-1.792-1.847a8 8 0 00-5.801-2.428l-2.588.02a8 8 0 01-8.06-8.059l.021-2.865a8 8 0 00-2.344-5.717l-2.035-2.035a8 8 0 010-11.315l2.035-2.035a8 8 0 002.344-5.717l-.021-2.865a8 8 0 018.06-8.059l2.588.02a8 8 0 005.8-2.427l1.794-1.847zm7.437 28.16l-1.836-1.837a2.25 2.25 0 00-3.174-.009l-12.764 11.78c-.464.438-.77.996-.798 1.621a2.257 2.257 0 00.648 1.683l2.742 2.773.002.002.003.003c.424.422.997.66 1.595.662h.083c.625-.023 1.185-.316 1.63-.785l11.861-12.706a2.252 2.252 0 00.008-3.188zm14.754-3.713l-.022-.021-2.41-2.385a1.51 1.51 0 00-1.074-.44 1.54 1.54 0 00-.899.29c0-.02.002-.042.004-.062l.002-.023v-.004c.033-.457.08-1.146-.365-1.77a18.14 18.14 0 00-1.744-2.02l-.003-.004-.003-.002c-.936-.922-2.974-2.66-6.097-3.933a9.812 9.812 0 00-3.732-.735c-2.22 0-3.907 1.001-4.553 1.595-.366.35-.7.73-.997 1.14a1.125 1.125 0 001.311 1.712 5.23 5.23 0 01.604-.185 4.46 4.46 0 011.297-.081c.927.076 2.024.537 2.51.92.822.662 1.218 1.553 1.283 2.89.013.268-.542 1.275-1.406 2.424a1.125 1.125 0 00.102 1.476l2.42 2.42a1.125 1.125 0 001.546.043c.684-.61 1.727-1.532 2.09-1.758.541-.332.928-.396 1.034-.407a1.35 1.35 0 01.794.167.088.088 0 01-.022.067l-.128.121-.02.02a1.512 1.512 0 00.003 2.148l2.409 2.384a1.508 1.508 0 001.074.44c.4 0 .785-.157 1.07-.437l3.903-3.854.039-.042a1.538 1.538 0 00-.02-2.094z" fill="#9EA3B5"/><path d="M56.012 74.741l9 17.397c.73 1.411 2.736 1.448 3.518.064l4.564-8.078-4.633-7.581a2 2 0 113.413-2.086l4.685 7.666 9.567.976c1.58.16 2.71-1.497 1.979-2.909L78.58 61.781c-2.349 4.517-7.087 7.593-12.537 7.552l-2.587-.02a2 2 0 00-1.45.607l-1.794 1.847a13.964 13.964 0 01-4.2 2.974zM22.634 63.244L13.867 80.19c-.73 1.411.398 3.07 1.98 2.909l9.42-.961 4.695-7.681a2 2 0 013.413 2.086l-4.563 7.465 4.63 8.194c.782 1.384 2.787 1.347 3.517-.065l8.722-16.858a13.937 13.937 0 01-5.557-3.513L38.33 69.92a2 2 0 00-1.45-.607l-2.588.02c-4.839.036-9.116-2.385-11.659-6.089z" fill="#9EA3B5"/></svg>