<svg width="100" height="100" viewBox="0 0 100 100" fill="none" xmlns="http://www.w3.org/2000/svg"><path fill-rule="evenodd" clip-rule="evenodd" d="M57.471 15.553a.898.898 0 00-.898-.898H31.43a9.878 9.878 0 00-9.878 9.878V74.82a9.878 9.878 0 009.878 9.878h35.92a9.878 9.878 0 009.877-9.877v-3.955l-1.188 1.184-9.663 2.226-.323.032a7.087 7.087 0 01-1.21.02 7.145 7.145 0 01-6.69-8.665l.006-.032 2.16-9.324 16.905-16.952a.898.898 0 00-.895-.824H60.165a2.694 2.694 0 01-2.694-2.694V15.553zm-28.77 28.413a2.586 2.586 0 012.585-2.586h11.207a2.586 2.586 0 010 5.172H31.286a2.586 2.586 0 01-2.586-2.586zm0 12.93a2.586 2.586 0 012.585-2.586h19.828a2.586 2.586 0 010 5.173H31.286a2.586 2.586 0 01-2.586-2.586zM28.7 69.829a2.586 2.586 0 012.586-2.586h19.828a2.586 2.586 0 110 5.173H31.286a2.586 2.586 0 01-2.586-2.587z" fill="#9EA3B5"/><path d="M77.227 63.56V46.678L65.025 58.913l-1.82 7.855a1.972 1.972 0 001.916 2.394c.137.014.275.014.412 0l7.902-1.82 3.792-3.781zM63.16 17.67c0-.628.63-1.027 1.096-.634.395.334.75.722 1.054 1.165l9.834 14.308a.48.48 0 01-.405.75H63.976a.799.799 0 01-.577-.25.872.872 0 01-.24-.602V17.67z" fill="#9EA3B5"/><path d="M65.025 58.913l-1.82 7.855a1.972 1.972 0 001.916 2.394c.137.014.275.014.412 0l7.902-1.82 13.863-13.824-8.468-8.449-13.805 13.844zM93.378 44.66l-5.652-5.651a1.983 1.983 0 00-2.797 0l-3.141 3.142 8.458 8.457 3.141-3.141a1.981 1.981 0 00-.01-2.807z" fill="#9EA3B5"/></svg>