<svg width="100" height="100" viewBox="0 0 100 100" fill="none" xmlns="http://www.w3.org/2000/svg"><path d="M45.602 56.385a1.12 1.12 0 00.286-.321c.142-.234.213-.524.213-.87 0-.471-.131-.831-.393-1.08a1.22 1.22 0 00-.577-.313 2.125 2.125 0 00-.521-.06h-3.932l2.264-2.236a13.394 13.394 0 00.947-1.022c.182-.22.344-.436.485-.646a5.513 5.513 0 00.785-1.57c.17-.522.255-1.059.255-1.608 0-.876-.19-1.609-.569-2.197-.38-.602-.935-1.06-1.668-1.374a5.219 5.219 0 00-1.1-.333 8.405 8.405 0 00-1.587-.138 8.954 8.954 0 00-2.142.26l-.048.011-.051.014c-.27.072-.535.161-.798.267a7.486 7.486 0 00-.773.363l-.014.008c-.046.024-.089.05-.13.076-.271.17-.463.38-.576.63a1.465 1.465 0 00-.138.843c.053.288.17.543.353.766.197.222.432.366.707.431.287.066.608.02.961-.137l.18-.09.01-.004a4.82 4.82 0 011.122-.379l.012-.003a3.837 3.837 0 011.325-.06c.272.038.507.11.703.213.072.038.138.08.2.127.326.248.49.621.49 1.118 0 .393-.112.785-.334 1.177a3.91 3.91 0 01-.19.318 7.494 7.494 0 01-.57.738l-.01.012c-.096.111-.199.226-.309.345l-3.433 3.59a5.097 5.097 0 00-.414.49l-.016.022-.014.021a4.14 4.14 0 00-.204.31 2.014 2.014 0 00-.235.982c0 .523.124.922.372 1.197.18.18.434.297.762.354.15.025.314.038.494.038h6.828c.419 0 .75-.093.992-.28z" fill="#9EA3B5"/><path fill-rule="evenodd" clip-rule="evenodd" d="M52.94 54.35v.706c0 .589.15 1.033.451 1.334.314.301.746.452 1.295.452.56 0 .983-.15 1.27-.447l.005-.005a1.53 1.53 0 00.366-.656c.057-.2.086-.427.086-.678v-.706h.47c.468 0 .825-.104 1.073-.312l.046-.041a1.092 1.092 0 00.308-.469c.056-.161.084-.345.084-.551 0-.331-.076-.605-.23-.82a1.106 1.106 0 00-.208-.222 1.1 1.1 0 00-.178-.122c-.231-.127-.53-.19-.894-.19h-.471v-7.18c0-.603-.144-1.047-.432-1.335-.288-.3-.68-.451-1.177-.451-.445 0-.83.091-1.157.274-.328.184-.622.471-.883.864l-4.788 6.984c-.077.108-.149.213-.215.313a5.699 5.699 0 00-.308.53c-.04.083-.075.161-.104.236a2.35 2.35 0 00-.177.903c0 .536.157.935.471 1.196.327.262.778.393 1.354.393h3.943zm0-2.727v-3.815l-2.57 3.815h2.57z" fill="#9EA3B5"/><path d="M59.107 49.207c.017-.087.041-.167.074-.24a.808.808 0 01.403-.407 1.21 1.21 0 01.495-.099h.014a1.732 1.732 0 01.128.005c.268.02.478.107.63.26a.792.792 0 01.093.105c.107.147.167.335.18.564.002.033.003.066.003.1v2.207a1.92 1.92 0 011.011-.706 2.587 2.587 0 01.758-.11c.453 0 .824.088 1.115.264a1.367 1.367 0 01.27.204l.016.017h.002c.152.154.274.348.367.583.146.36.218.816.218 1.367v2.413c0 .337-.088.594-.264.77a.871.871 0 01-.425.228c-.1.024-.212.036-.333.036-.33 0-.582-.088-.758-.264-.177-.176-.265-.433-.265-.77v-2.332a2.637 2.637 0 00-.008-.213l-.004-.032-.002-.019-.003-.024-.002-.013a1.303 1.303 0 00-.031-.158.81.81 0 00-.079-.198l-.008-.013a.543.543 0 00-.046-.066.533.533 0 00-.184-.149.667.667 0 00-.219-.062 1.193 1.193 0 00-.378.021.909.909 0 00-.472.271.914.914 0 00-.16.23 1.156 1.156 0 00-.11.425c-.004.04-.006.083-.006.126v2.206c0 .69-.344 1.034-1.034 1.034a1.389 1.389 0 01-.413-.06.856.856 0 01-.334-.204c-.176-.176-.264-.433-.264-.77v-6.239c0-.103.009-.2.025-.288z" fill="#9EA3B5"/><path fill-rule="evenodd" clip-rule="evenodd" d="M8.334 49.5C8.334 26.486 26.988 7.832 50 7.832c23.012 0 41.666 18.654 41.666 41.666 0 23.012-18.654 41.666-41.666 41.666-23.012 0-41.666-18.654-41.666-41.666zm25.95 9.015a3.202 3.202 0 01-.11-.115c-.958-1.06-1.191-2.338-1.191-3.324a5.184 5.184 0 01.676-2.595c.308-.52.676-.991 1.081-1.417l.005-.005 1.578-1.65a4.355 4.355 0 01-.146-.03l-.032-.008a4.509 4.509 0 01-2.42-1.5 4.817 4.817 0 01-1.047-2.353c-.125-.92.03-1.813.405-2.611.477-1.031 1.268-1.723 2.071-2.156.847-.46 1.742-.801 2.68-1.012l.012-.003a12.28 12.28 0 012.644-.29c1.355 0 2.711.195 3.946.732 1.24.533 2.323 1.38 3.083 2.58a6.5 6.5 0 01.819 1.885l1.8-2.627c.468-.697 1.104-1.373 1.959-1.852.882-.493 1.821-.678 2.707-.678 1.172 0 2.448.378 3.445 1.405 1.094 1.112 1.335 2.516 1.335 3.551v.876c.176-.02.346-.028.51-.028.882 0 2.037.245 2.976 1.17.43.418.72.883.909 1.35a4.94 4.94 0 011.648.611c.994.584 1.625 1.457 1.983 2.355.345.857.446 1.748.446 2.545v2.413c0 .873-.237 2.056-1.193 3.012-.944.944-2.111 1.194-3.001 1.194a4.443 4.443 0 01-1.873-.402 4.517 4.517 0 01-1.896.402c-.756 0-1.682-.183-2.509-.783-.94.657-2.005.856-2.898.856-1.142 0-2.44-.328-3.489-1.333a4.495 4.495 0 01-.863-1.159h-1.337a6.75 6.75 0 01-.286-.006 4.37 4.37 0 01-.76 1.02c-1.039 1.038-2.34 1.301-3.341 1.301h-6.828c-.961 0-2.383-.206-3.498-1.321zm8.884-31.928c.829-.259 1.66-.47 2.491-.638 13.274-2.587 26.192 5.982 28.941 19.26 2.282 11.023-3.156 21.85-12.627 26.867a3.035 3.035 0 00-.264.119c-.985.498-2.015.937-3.087 1.309l.761-2.021a3.007 3.007 0 00-5.629-2.119l-2.989 7.941a3.007 3.007 0 001.104 3.533l6.704 4.638a3.007 3.007 0 103.422-4.946l-1.724-1.193a30.611 30.611 0 0014.258-10.081c.15-.131.289-.28.414-.444a30.886 30.886 0 004.784-9.11c.083-.252.13-.507.145-.76a30.545 30.545 0 001.086-11.967 3.03 3.03 0 00.013-.898 30.928 30.928 0 00-1.12-5.04 30.916 30.916 0 00-1.94-4.787 3.013 3.013 0 00-.516-.727 30.668 30.668 0 00-7.648-9.182 3.014 3.014 0 00-.594-.6 30.883 30.883 0 00-9.111-4.785 3.015 3.015 0 00-.66-.137 30.55 30.55 0 00-12.568-1.134c-.131 0-.263.01-.396.028a30.855 30.855 0 00-4.009.817c-8.187 2.191-14.783 7.55-18.726 14.453-.143.25-.246.512-.311.779a30.88 30.88 0 00-2.076 4.88 3.013 3.013 0 005.728 1.873 24.858 24.858 0 013.85-7.333c.148-.193.268-.398.362-.61a24.649 24.649 0 017.625-6.238c.154-.049.306-.11.454-.186a24.893 24.893 0 013.853-1.561zM22.634 50.874a3.013 3.013 0 013.391 2.581c.183 1.352.482 2.709.902 4.059a24.82 24.82 0 001.562 3.853 3.013 3.013 0 11-5.376 2.724 30.916 30.916 0 01-1.94-4.785 30.928 30.928 0 01-1.12-5.041 3.013 3.013 0 012.581-3.391zm12.889 18.933a3.013 3.013 0 10-3.652 4.794 30.886 30.886 0 009.11 4.785 3.013 3.013 0 001.874-5.728 24.86 24.86 0 01-7.332-3.85z" fill="#9EA3B5"/><path d="M37.782 56.665c-.575 0-.994-.13-1.255-.392-.249-.275-.373-.674-.373-1.197 0-.367.078-.694.235-.981.17-.288.386-.57.648-.844l3.433-3.59c.51-.55.87-1.02 1.079-1.413.222-.392.334-.784.334-1.177 0-.497-.164-.87-.49-1.118-.328-.249-.799-.373-1.413-.373a4.02 4.02 0 00-1.001.137 4.764 4.764 0 00-1.138.432c-.353.157-.674.203-.961.137a1.339 1.339 0 01-.707-.431 1.647 1.647 0 01-.353-.765c-.039-.288.007-.57.138-.844.13-.288.366-.523.706-.706a7.186 7.186 0 011.864-.707 9.105 9.105 0 011.962-.215c1.072 0 1.968.157 2.687.47.733.314 1.289.772 1.668 1.374.38.588.569 1.32.569 2.197 0 .55-.085 1.086-.255 1.609a5.513 5.513 0 01-.785 1.57c-.353.523-.83 1.078-1.432 1.667l-3.178 3.14v-.903h4.846c.484 0 .85.124 1.098.372.262.249.393.609.393 1.08 0 .47-.131.837-.393 1.098-.248.249-.614.373-1.098.373h-6.828zm16.904.177c-.549 0-.98-.15-1.295-.452-.3-.3-.45-.745-.45-1.334v-.706h-3.944c-.576 0-1.027-.131-1.354-.393-.314-.261-.47-.66-.47-1.196 0-.314.058-.615.176-.903.117-.3.327-.66.628-1.079l4.787-6.984c.261-.393.555-.68.883-.864.327-.183.712-.274 1.157-.274.497 0 .89.15 1.177.451.288.288.432.732.432 1.334v7.18h.47c.498 0 .87.118 1.119.354.261.235.392.569.392 1 0 .445-.13.785-.392 1.02-.249.236-.621.354-1.118.354h-.471v.706c0 .576-.15 1.02-.451 1.334-.288.301-.713.452-1.276.452zm-1.746-5.22v-4.63h.55l-3.69 5.476v-.844h3.14zm7.153 5.146c-.321 0-.57-.088-.747-.264-.176-.176-.264-.433-.264-.77v-6.239c0-.337.088-.593.264-.77.177-.176.426-.264.747-.264.33 0 .582.088.759.265.183.176.275.432.275.77V52h-.183c.183-.36.444-.636.78-.827a2.372 2.372 0 011.173-.287c.452 0 .823.088 1.114.264.291.168.51.437.655.804.146.36.218.816.218 1.367v2.413c0 .337-.088.594-.264.77-.176.176-.429.264-.758.264-.33 0-.582-.088-.758-.264-.177-.176-.265-.433-.265-.77v-2.332c0-.345-.061-.59-.183-.736-.115-.145-.288-.218-.518-.218-.306 0-.551.1-.735.299-.184.191-.276.452-.276.781v2.206c0 .69-.344 1.034-1.034 1.034z" fill="#9EA3B5"/></svg>