<svg width="100" height="100" viewBox="0 0 100 100" fill="none" xmlns="http://www.w3.org/2000/svg"><path fill-rule="evenodd" clip-rule="evenodd" d="M68.81 13.591c-.003-1.857-1.402-3.25-3.171-3.246-1.81.004-3.168 1.397-3.163 3.255l.004 2.955-24.437.034-.004-2.955c-.004-1.858-1.362-3.251-3.172-3.247-1.81 0-3.167 1.397-3.163 3.255l.004 3.167c-11.478 1.068-18.792 8.976-18.776 21.215l.045 31.22c.017 13.296 8.335 21.647 21.421 21.63l29.032-.038C57.758 87.278 54 81.067 54 74c0-4.239 1.352-8.17 3.658-11.405a1.808 1.808 0 01-.76-1.474v-5.862c0-1 .81-1.81 1.81-1.81h5.862c1 0 1.81.81 1.81 1.81v.371A20.873 20.873 0 0174.5 54c5.131 0 9.822 1.839 13.417 4.877l-.03-21.119c-.013-12.16-7.594-20.088-19.072-21l-.004-3.166zm-30.759 9.5l24.437-.034.004 3.42c0 1.816 1.362 3.251 3.172 3.247 1.769 0 3.163-1.44 3.163-3.255l-.004-3.251c8.063.709 12.556 5.471 12.733 14.549v1.477l-62.284.085-.005-1.313c-.012-9.158 4.427-13.937 12.45-14.752l.003 3.251c0 1.82 1.362 3.251 3.172 3.247 1.81 0 3.164-1.436 3.164-3.255l-.005-3.416zM22.415 55.259c0-1 .81-1.81 1.81-1.81h5.862c1 0 1.81.81 1.81 1.81v5.862c0 1-.81 1.81-1.81 1.81h-5.862c-1 0-1.81-.81-1.81-1.81v-5.862zm1.81 13.707c-1 0-1.81.81-1.81 1.81v5.862c0 1 .81 1.81 1.81 1.81h5.862c1 0 1.81-.81 1.81-1.81v-5.862c0-1-.81-1.81-1.81-1.81h-5.862zm15.431-13.707c0-1 .81-1.81 1.81-1.81h5.863c1 0 1.81.81 1.81 1.81v5.862c0 1-.81 1.81-1.81 1.81h-5.862c-1 0-1.81-.81-1.81-1.81v-5.862zm1.81 13.707c-1 0-1.81.81-1.81 1.81v5.862c0 1 .81 1.81 1.81 1.81h5.863c1 0 1.81-.81 1.81-1.81v-5.862c0-1-.81-1.81-1.81-1.81h-5.862z" fill="#9EA3B5"/><path fill-rule="evenodd" clip-rule="evenodd" d="M74.57 57.759c-9.285 0-16.81 7.333-16.81 16.38 0 9.045 7.525 16.378 16.81 16.378 9.284 0 16.81-7.333 16.81-16.379 0-9.046-7.526-16.38-16.81-16.38zm2.241 9.482a1.81 1.81 0 00-3.62 0v8.422c0 .715.42 1.363 1.072 1.654l4.31 1.922a1.81 1.81 0 101.475-3.306l-3.237-1.444V67.24z" fill="#9EA3B5"/></svg>