<svg width="30" height="36" viewBox="0 0 30 36" fill="none" xmlns="http://www.w3.org/2000/svg"><path d="M28.353 5.362l-3.979-3.81C22.91.15 20.526.15 19.062 1.551L13.75 6.637l3.98 3.81 3.979-3.81L28.353 13A5.299 5.299 0 0030 9.18a5.299 5.299 0 00-1.647-3.818zM3.27 20.982a2.596 2.596 0 003.686 0l4.294-4.286L7.564 13 3.27 17.286a2.604 2.604 0 000 3.696z" fill="#fff"/><path d="M20.54 10.668l5.175 5.014c.17.164.304.359.396.573a1.714 1.714 0 010 1.352 1.765 1.765 0 01-.396.573 1.81 1.81 0 01-.594.383 1.886 1.886 0 01-1.994-.383L6.266 34.465c-1.431 1.382-3.761 1.382-5.192 0a3.465 3.465 0 010-5.015l12.971-12.527-5.834-5.634a2.638 2.638 0 01-.601-.86 2.562 2.562 0 010-2.036c.14-.322.343-.615.6-.86 1.065-1.046 2.808-1.046 3.89.018l5.835 5.634 2.605-2.516z" fill="#fff"/></svg>