<svg width="40" height="22" viewBox="0 0 40 22" fill="none" xmlns="http://www.w3.org/2000/svg"><path d="M13.911 5.907h-6.3l-.35.673h6.265l-2.738 4.782h-6.01l-.35.674h5.975L7.88 16.44H2.11l1.552-2.983v-1.421h.019v-.674h-.019V6.58h.019v-.673h-.019v-.358h.019v-1.33h4.786L10.234.825h6.587l-2.91 5.083zM17.596.824l-2.91 5.083h5.47l2.91-5.083h-5.47zm6.246 0l-2.91 5.083h5.89l1.3-2.539 8.84 17.809h3.39L29.766.824h-5.924z" fill="#fff"/><path d="M26.477 6.58h-5.93l-2.738 4.782h6.217l2.45-4.782zm-2.797 5.456h-6.256l-2.521 4.404h6.52l2.258-4.405zm-2.601 5.077h-6.562l-2.326 4.064h6.805l2.083-4.064zm-9.664 4.064l2.327-4.064h-5.47l-2.327 4.064h5.47zm-6.245 0l2.326-4.064H1.761l-2.114 4.064H5.17zM14.301 6.58h5.47l-2.737 4.782h-5.47L14.3 6.58zm-3.123 5.456L8.657 16.44h5.47l2.521-4.405h-5.47zm13.709 1.436h2.968v2.968h-2.968v-2.968zm0 3.71h2.968v2.968h-2.968v-2.968zm6.677-3.71h-2.967v2.968h2.967v-2.968zm-2.967 3.71h2.967v2.968h-2.967v-2.968z" fill="#fff"/></svg>