<svg width="30" height="25" viewBox="0 0 30 25" fill="none" xmlns="http://www.w3.org/2000/svg"><path d="M0 1a1 1 0 011-1h12.082a1 1 0 011 1v4.757a1 1 0 01-1 1H1a1 1 0 01-1-1V1zm0 9.122a1 1 0 011-1h5.96a1 1 0 011 1v4.756a1 1 0 01-1 1H1a1 1 0 01-1-1v-4.756zm9.796 0a1 1 0 011-1h12.082a1 1 0 011 1v4.756a1 1 0 01-1 1H10.796a1 1 0 01-1-1v-4.756zM0 19.243a1 1 0 011-1h12.082a1 1 0 011 1V24a1 1 0 01-1 1H1a1 1 0 01-1-1v-4.757zm15.918 0a1 1 0 011-1H29a1 1 0 011 1V24a1 1 0 01-1 1H16.918a1 1 0 01-1-1v-4.757z" fill="#fff"/></svg>