<svg width="35" height="36" viewBox="0 0 35 36" fill="none" xmlns="http://www.w3.org/2000/svg"><path d="M33.721.959h-3.526a.588.588 0 00-.525.325l-3 6-3-6a.588.588 0 00-.526-.325H10.217a.587.587 0 00-.588.588v15.382l-5.56-3.538a.588.588 0 00-.731.08L.4 16.409a.587.587 0 00-.024.806l9.253 10.41v6.828c0 .324.263.587.588.587h6.463v-9.402a.587.587 0 111.176 0v9.402H33.72a.587.587 0 00.588-.587V1.547a.587.587 0 00-.588-.588zM17.856 22.113a.587.587 0 11-1.176 0v-1.175a.587.587 0 111.176 0v1.175z" fill="#fff"/></svg>