<svg width="24" height="24" viewBox="0 0 24 24" fill="none" xmlns="http://www.w3.org/2000/svg"><g stroke="#fff" stroke-width="2"><path d="M10.575 2.946a2 2 0 012.85 0l1.043 1.06a2 2 0 001.44.596l1.487-.011a2 2 0 012.014 2.014l-.01 1.487a2 2 0 00.596 1.44l1.059 1.043a2 2 0 010 2.85l-1.06 1.043a2 2 0 00-.596 1.44l.011 1.487a2 2 0 01-2.014 2.014l-1.487-.01a2 2 0 00-1.44.596l-1.043 1.059a2 2 0 01-2.85 0l-1.043-1.06a2 2 0 00-1.44-.596l-1.487.011a2 2 0 01-2.014-2.014l.01-1.487a2 2 0 00-.596-1.44l-1.059-1.043a2 2 0 010-2.85l1.06-1.043a2 2 0 00.596-1.44L4.59 6.605a2 2 0 012.014-2.014l1.487.01a2 2 0 001.44-.596l1.043-1.059z"/><path d="M16 10l-4.375 4L9 12.118" stroke-linecap="round" stroke-linejoin="round"/></g></svg>