<svg width="223" height="48" viewBox="0 0 223 48" fill="none" xmlns="http://www.w3.org/2000/svg"><path fill-rule="evenodd" clip-rule="evenodd" d="M21.12 11.625a4.862 4.862 0 015.76 0l10.333 7.597a4.862 4.862 0 011.982 3.917v15.498H29.47V25.599L24 21.577l-5.47 4.022v13.038H8.808V23.139c0-1.547.735-3.001 1.982-3.917l10.331-7.597z" fill="#fff"/><path fill="#fff" d="M18.593 38.637h10.865V46.5H18.593zM60 37.194v-26.82h5.58v11.592h10.44V10.374h5.58v26.82h-5.58V26.826H65.58v10.368H60zm35.727.432c-1.944 0-3.72-.444-5.328-1.332a10.463 10.463 0 01-3.816-3.636c-.936-1.56-1.404-3.324-1.404-5.292 0-1.992.468-3.756 1.404-5.292a10.463 10.463 0 013.816-3.636c1.608-.888 3.384-1.332 5.328-1.332 1.944 0 3.708.444 5.292 1.332a10.18 10.18 0 013.78 3.636c.96 1.536 1.44 3.3 1.44 5.292 0 1.968-.48 3.732-1.44 5.292a10.18 10.18 0 01-3.78 3.636c-1.584.888-3.348 1.332-5.292 1.332zm0-4.86c.984 0 1.836-.228 2.556-.684a4.59 4.59 0 001.728-1.908c.432-.816.648-1.752.648-2.808 0-1.056-.216-1.98-.648-2.772a4.59 4.59 0 00-1.728-1.908c-.72-.48-1.572-.72-2.556-.72s-1.848.24-2.592.72c-.744.456-1.332 1.092-1.764 1.908-.408.792-.612 1.716-.612 2.772 0 1.056.204 1.992.612 2.808.432.816 1.02 1.452 1.764 1.908.744.456 1.608.684 2.592.684zm13.693 4.428V17.538h5.04v4.788l-.54-.792c.288-1.512.984-2.628 2.088-3.348 1.104-.72 2.424-1.08 3.96-1.08 1.632 0 3.06.42 4.284 1.26 1.248.816 2.028 1.92 2.34 3.312l-1.548.144c.648-1.608 1.572-2.796 2.772-3.564 1.2-.768 2.604-1.152 4.212-1.152 1.416 0 2.664.312 3.744.936a6.659 6.659 0 012.592 2.628c.624 1.104.936 2.4.936 3.888v12.636h-5.4V25.71c0-.768-.144-1.428-.432-1.98a3.021 3.021 0 00-1.152-1.296c-.504-.312-1.116-.468-1.836-.468-.696 0-1.308.156-1.836.468-.504.312-.9.744-1.188 1.296-.264.552-.396 1.212-.396 1.98v11.484h-5.4V25.71c0-.768-.144-1.428-.432-1.98a3.021 3.021 0 00-1.152-1.296c-.504-.312-1.116-.468-1.836-.468-.696 0-1.308.156-1.836.468-.504.312-.9.744-1.188 1.296-.264.552-.396 1.212-.396 1.98v11.484h-5.4zm42.902.432c-2.088 0-3.9-.456-5.436-1.368a9.707 9.707 0 01-3.564-3.744c-.84-1.56-1.26-3.288-1.26-5.184 0-1.968.432-3.72 1.296-5.256.888-1.536 2.076-2.748 3.564-3.636 1.488-.888 3.168-1.332 5.04-1.332 1.56 0 2.94.252 4.14.756 1.2.48 2.208 1.164 3.024 2.052a8.938 8.938 0 011.908 3.096c.432 1.152.648 2.412.648 3.78 0 .384-.024.768-.072 1.152-.024.36-.084.672-.18.936h-14.724v-3.96h11.664l-2.556 1.872c.24-1.032.228-1.944-.036-2.736-.264-.816-.732-1.452-1.404-1.908-.648-.48-1.452-.72-2.412-.72-.936 0-1.74.228-2.412.684-.672.456-1.176 1.128-1.512 2.016-.336.888-.468 1.968-.396 3.24-.096 1.104.036 2.076.396 2.916.36.84.912 1.5 1.656 1.98.744.456 1.644.684 2.7.684.96 0 1.776-.192 2.448-.576a4.115 4.115 0 001.62-1.584l4.32 2.052c-.384.96-.996 1.8-1.836 2.52-.816.72-1.788 1.284-2.916 1.692-1.128.384-2.364.576-3.708.576zm12.936-.432v-26.82h10.296c1.848 0 3.48.324 4.896.972 1.44.648 2.568 1.608 3.384 2.88.816 1.272 1.224 2.844 1.224 4.716 0 1.824-.42 3.372-1.26 4.644-.816 1.272-1.944 2.244-3.384 2.916-1.416.648-3.036.972-4.86.972h-4.716v9.72h-5.58zm5.58-14.58h4.752c.792 0 1.476-.156 2.052-.468a3.3 3.3 0 001.332-1.296c.336-.552.504-1.188.504-1.908 0-.744-.168-1.392-.504-1.944a3.3 3.3 0 00-1.332-1.296c-.576-.312-1.26-.468-2.052-.468h-4.752v7.38zm17.403 14.58V17.538h5.04v4.716l-.36-.684c.432-1.656 1.14-2.772 2.124-3.348 1.008-.6 2.196-.9 3.564-.9h1.152v4.68h-1.692c-1.32 0-2.388.408-3.204 1.224-.816.792-1.224 1.92-1.224 3.384v10.584h-5.4zm23.642.432c-1.944 0-3.72-.444-5.328-1.332a10.463 10.463 0 01-3.816-3.636c-.936-1.56-1.404-3.324-1.404-5.292 0-1.992.468-3.756 1.404-5.292a10.463 10.463 0 013.816-3.636c1.608-.888 3.384-1.332 5.328-1.332 1.944 0 3.708.444 5.292 1.332a10.18 10.18 0 013.78 3.636c.96 1.536 1.44 3.3 1.44 5.292 0 1.968-.48 3.732-1.44 5.292a10.18 10.18 0 01-3.78 3.636c-1.584.888-3.348 1.332-5.292 1.332zm0-4.86c.984 0 1.836-.228 2.556-.684a4.593 4.593 0 001.728-1.908c.432-.816.648-1.752.648-2.808 0-1.056-.216-1.98-.648-2.772a4.593 4.593 0 00-1.728-1.908c-.72-.48-1.572-.72-2.556-.72s-1.848.24-2.592.72c-.744.456-1.332 1.092-1.764 1.908-.408.792-.612 1.716-.612 2.772 0 1.056.204 1.992.612 2.808.432.816 1.02 1.452 1.764 1.908.744.456 1.608.684 2.592.684z"/></svg>