<svg width="149" height="32" viewBox="0 0 149 32" fill="none" xmlns="http://www.w3.org/2000/svg"><path fill-rule="evenodd" clip-rule="evenodd" d="M14.08 7.75a3.241 3.241 0 013.84 0l6.888 5.065c.83.61 1.321 1.58 1.321 2.611v10.332h-6.483v-8.692L16 14.385l-3.647 2.681v8.692H5.871V15.426c0-1.03.49-2 1.32-2.611L14.08 7.75z" fill="#15B2F5"/><path fill="#fff" d="M12.395 25.758h7.243V31h-7.243zM40 24.796V6.916h3.72v7.728h6.96V6.916h3.72v17.88h-3.72v-6.912h-6.96v6.912H40zm23.818.288c-1.296 0-2.48-.296-3.552-.888a6.975 6.975 0 01-2.544-2.424c-.624-1.04-.936-2.216-.936-3.528 0-1.328.312-2.504.936-3.528a6.975 6.975 0 012.544-2.424c1.072-.592 2.256-.888 3.552-.888 1.296 0 2.472.296 3.528.888a6.786 6.786 0 012.52 2.424c.64 1.024.96 2.2.96 3.528 0 1.312-.32 2.488-.96 3.528a6.786 6.786 0 01-2.52 2.424c-1.056.592-2.232.888-3.528.888zm0-3.24c.656 0 1.224-.152 1.704-.456.496-.304.88-.728 1.152-1.272.288-.544.432-1.168.432-1.872 0-.704-.144-1.32-.432-1.848a3.062 3.062 0 00-1.152-1.272c-.48-.32-1.048-.48-1.704-.48-.656 0-1.232.16-1.728.48a3.228 3.228 0 00-1.176 1.272c-.272.528-.408 1.144-.408 1.848 0 .704.136 1.328.408 1.872.288.544.68.968 1.176 1.272.496.304 1.072.456 1.728.456zm9.129 2.952V11.692h3.36v3.192l-.36-.528c.192-1.008.656-1.752 1.392-2.232.736-.48 1.616-.72 2.64-.72 1.088 0 2.04.28 2.856.84.832.544 1.352 1.28 1.56 2.208l-1.032.096c.432-1.072 1.048-1.864 1.848-2.376.8-.512 1.736-.768 2.808-.768.944 0 1.776.208 2.496.624a4.44 4.44 0 011.728 1.752c.416.736.624 1.6.624 2.592v8.424h-3.6V17.14c0-.512-.096-.952-.288-1.32a2.014 2.014 0 00-.768-.864c-.336-.208-.744-.312-1.224-.312a2.36 2.36 0 00-1.224.312c-.336.208-.6.496-.792.864-.176.368-.264.808-.264 1.32v7.656h-3.6V17.14c0-.512-.096-.952-.288-1.32a2.014 2.014 0 00-.768-.864c-.336-.208-.744-.312-1.224-.312a2.36 2.36 0 00-1.224.312c-.336.208-.6.496-.792.864-.176.368-.264.808-.264 1.32v7.656h-3.6zm28.601.288c-1.392 0-2.6-.304-3.624-.912a6.472 6.472 0 01-2.376-2.496c-.56-1.04-.84-2.192-.84-3.456 0-1.312.288-2.48.864-3.504a6.64 6.64 0 012.376-2.424c.992-.592 2.112-.888 3.36-.888 1.04 0 1.96.168 2.76.504.8.32 1.472.776 2.016 1.368.56.592.984 1.28 1.272 2.064.288.768.432 1.608.432 2.52 0 .256-.016.512-.048.768-.016.24-.056.448-.12.624h-9.816v-2.64h7.776l-1.704 1.248c.16-.688.152-1.296-.024-1.824a2.368 2.368 0 00-.936-1.272c-.432-.32-.968-.48-1.608-.48-.624 0-1.16.152-1.608.456-.448.304-.784.752-1.008 1.344-.224.592-.312 1.312-.264 2.16-.064.736.024 1.384.264 1.944.24.56.608 1 1.104 1.32.496.304 1.096.456 1.8.456.64 0 1.184-.128 1.632-.384a2.743 2.743 0 001.08-1.056l2.88 1.368a4.3 4.3 0 01-1.224 1.68 5.972 5.972 0 01-1.944 1.128c-.752.256-1.576.384-2.472.384zm8.624-.288V6.916h6.864c1.232 0 2.32.216 3.264.648.96.432 1.712 1.072 2.256 1.92.544.848.816 1.896.816 3.144 0 1.216-.28 2.248-.84 3.096-.544.848-1.296 1.496-2.256 1.944-.944.432-2.024.648-3.24.648h-3.144v6.48h-3.72zm3.72-9.72h3.168c.528 0 .984-.104 1.368-.312a2.2 2.2 0 00.888-.864c.224-.368.336-.792.336-1.272 0-.496-.112-.928-.336-1.296a2.2 2.2 0 00-.888-.864c-.384-.208-.84-.312-1.368-.312h-3.168v4.92zm11.602 9.72V11.692h3.36v3.144l-.24-.456c.288-1.104.76-1.848 1.416-2.232.672-.4 1.464-.6 2.376-.6h.768v3.12h-1.128c-.88 0-1.592.272-2.136.816-.544.528-.816 1.28-.816 2.256v7.056h-3.6zm15.762.288c-1.296 0-2.48-.296-3.552-.888a6.975 6.975 0 01-2.544-2.424c-.624-1.04-.936-2.216-.936-3.528 0-1.328.312-2.504.936-3.528a6.975 6.975 0 012.544-2.424c1.072-.592 2.256-.888 3.552-.888 1.296 0 2.472.296 3.528.888a6.786 6.786 0 012.52 2.424c.64 1.024.96 2.2.96 3.528 0 1.312-.32 2.488-.96 3.528a6.786 6.786 0 01-2.52 2.424c-1.056.592-2.232.888-3.528.888zm0-3.24c.656 0 1.224-.152 1.704-.456.496-.304.88-.728 1.152-1.272.288-.544.432-1.168.432-1.872 0-.704-.144-1.32-.432-1.848a3.062 3.062 0 00-1.152-1.272c-.48-.32-1.048-.48-1.704-.48-.656 0-1.232.16-1.728.48a3.228 3.228 0 00-1.176 1.272c-.272.528-.408 1.144-.408 1.848 0 .704.136 1.328.408 1.872.288.544.68.968 1.176 1.272.496.304 1.072.456 1.728.456z"/></svg>